<svg id="Layer_1" enable-background="new 0 0 487.228 487.228" height="512" viewBox="0 0 487.228 487.228" width="512" xmlns="http://www.w3.org/2000/svg"><g><g><path d="m359.876 370.808-53.297-22.453h-120.995c-12.38 0-22.417 10.036-22.417 22.417 0 12.38 10.035 22.415 22.414 22.417h-85.909l-53.416-33.479c-10.515-6.59-24.381-3.408-30.971 7.106s-3.408 24.381 7.106 30.971l64.362 40.339 141.474 22.667h259v-89.984h-127.351z" fill="#fff"/><path d="m359.876 370.808-2.648-1.116v71.1h-127.408l-135.889-21.771-59.703-42.166c-6.074-4.518-9.75-10-10.304-18.021-3.426 1.785-6.439 4.473-8.639 7.982-6.59 10.515-3.408 24.381 7.106 30.971l64.362 40.339 141.474 22.667h259v-89.984h-127.351z" fill="#e6d0f1"/><path d="m382.228 370.808h105v89.984h-105z" fill="#ffcec4"/><path d="m457.228 370.808h30v89.984h-30z" fill="#ff9d87"/><path d="m99.672 393.189h79l-53.416-33.478c-10.515-6.59-24.381-3.408-30.971 7.106-4.427 7.064-4.438 15.637-.785 22.504z" fill="#e6d0f1"/><path d="m213.79 148.205h134.938v134.938h-134.938z" fill="#8ad8f6" transform="matrix(.945 .326 -.326 .945 85.67 -79.905)"/><path d="m348.129 167.365-37.468 108.66-108.66-37.468-6.519 18.907 127.566 43.987 43.988-127.566z" fill="#54c9f3"/><path d="m80.33 95.799h134.938v134.938h-134.938z" fill="#8ad8f6" transform="matrix(.939 -.344 .344 .939 -47.099 60.722)"/><path d="m187.978 76.725-18.782 6.872 39.492 107.94-107.941 39.491 6.872 18.783 126.723-46.364z" fill="#54c9f3"/></g><g><path d="m487.228 378.309v-15h-97.5v-7.516h-15v7.516h-13.335l-53.298-22.453h-60.305v15h57.273l53.298 22.453h16.366v74.984h-145.902l-139.38-22.331-63.071-39.53c-6.994-4.383-9.118-13.639-4.734-20.632 4.383-6.994 13.639-9.117 20.633-4.734l47.557 29.806 5.859 3.672 1.827 1.145h88.065v-.111h53.865l12.751 17.238 12.059-8.92-17.248-23.318h-63.172c-7.403-.869-13.17-7.172-13.17-14.806 0-8.225 6.691-14.916 14.917-14.916h47.206v-15h-47.206c-16.215 0-29.448 12.968-29.895 29.076l-26.45-16.577c-14.001-8.774-32.533-4.523-41.309 9.479-2.224 3.548-3.626 7.471-4.222 11.499l-33.47-20.977c-14.003-8.774-32.533-4.523-41.309 9.479-8.775 14.002-4.523 32.532 9.479 41.308l65.654 41.148 142.979 22.908.589.095h147.097v7.5h15v-7.5h97.5v-15h-97.5v-74.984h97.502zm-386.588-7.509c4.383-6.994 13.64-9.117 20.633-4.734l31.309 19.623h-50.754l-1.488-.933-.972-.609c-1.682-4.37-1.24-9.339 1.272-13.347z"/><path d="m103.153 259.431 95.803-35.051-13.009 37.73 141.747 48.877 30.296-87.865-14.179-4.889-25.408 73.683-113.386-39.097 12.097-35.082 26.848-9.823-12.078-33.012 12.231-35.47 113.386 39.098-8.54 24.766 14.181 4.889 13.429-38.946-141.747-48.877-11.108 32.214-31.272-85.471-77.516 28.361 5.154 14.086 63.43-23.207 41.21 112.636-112.637 41.21-41.209-112.636 34.772-12.723-5.154-14.086-48.858 17.875z"/><path d="m140.236 155.768h15.125v14.999h-15.125z" transform="matrix(.939 -.344 .344 .939 -47.104 60.731)"/><path d="m101.697 137.607h15.125v15.001h-15.125z" transform="matrix(.939 -.344 .344 .939 -43.203 46.37)"/><path d="m158.044 116.992h15.125v14.999h-15.125z" transform="matrix(.939 -.344 .344 .939 -32.695 64.489)"/><path d="m122.484 194.423h15.125v15.001h-15.125z" transform="matrix(.939 -.344 .344 .939 -61.453 56.965)"/><path d="m178.831 173.808h15.125v15.001h-15.125z" transform="matrix(.939 -.344 .344 .939 -50.944 75.072)"/><path d="m273.758 208.112h15.001v15.125h-15.001z" transform="matrix(.326 -.945 .945 .326 -14.31 411.278)"/><path d="m255.319 169.706h14.999v15.125h-14.999z" transform="matrix(.326 -.945 .945 .326 9.557 367.941)"/><path d="m292.319 246.46h14.999v15.125h-14.999z" transform="matrix(.326 -.945 .945 .326 -38.066 454.653)"/><path d="m262.79 11.435h15v15h-15z"/><path d="m382.79 100.705h15v15h-15z"/><path d="m22.79 258.643h15v15h-15z"/><path d="m40.595 53.7c11.895-8.372 25.838-13.206 40.322-13.98l-.801-14.979c-17.301.925-33.953 6.696-48.155 16.693-14.201 9.997-25.253 23.724-31.961 39.7l13.83 5.807c5.615-13.374 14.871-24.868 26.765-33.241z"/><path d="m28.676 95.515 14.021 5.33c3.223-8.478 8.866-15.731 16.318-20.977 6.985-4.918 15.161-7.761 23.642-8.223l-.817-14.979c-11.292.616-22.17 4.398-31.459 10.937-9.909 6.973-17.415 16.626-21.705 27.912z"/><path d="m394.76 318.369 9.697 11.445c13.219-11.2 22.988-25.869 28.253-42.419 5.264-16.552 5.763-34.169 1.442-50.947l-14.525 3.74c3.616 14.046 3.197 28.798-1.212 42.66-4.408 13.862-12.589 26.145-23.655 35.521z"/><path d="m387.92 273.15c-2.589 8.141-7.379 15.351-13.854 20.849l9.711 11.434c8.619-7.321 14.995-16.912 18.438-27.736 3.673-11.547 3.813-23.772.404-35.355l-14.391 4.234c2.561 8.7 2.455 17.889-.308 26.574z"/></g></g></svg>