<?xml version="1.0" encoding="iso-8859-1"?>
<!-- Generator: Adobe Illustrator 19.0.0, SVG Export Plug-In . SVG Version: 6.00 Build 0)  -->
<svg version="1.1" id="Capa_1" xmlns="http://www.w3.org/2000/svg" xmlns:xlink="http://www.w3.org/1999/xlink" x="0px" y="0px"
	 viewBox="0 0 472 472" style="enable-background:new 0 0 472 472;" xml:space="preserve">
<g>
	<path style="fill:#393856;" d="M264,372c-4.418,0-8-3.582-8-8C255.846,227.097,144.903,116.154,8,116c-4.418,0-8-3.582-8-8
		c0-4.418,3.582-8,8-8c128.505,0.164,238.289,92.691,260.216,219.312C284.038,292.487,312.856,276.017,344,276c4.418,0,8,3.582,8,8
		s-3.582,8-8,8c-39.746,0.044-71.956,32.254-72,72C272,368.418,268.418,372,264,372z"/>
	<path style="fill:#393856;" d="M104,372c-4.418,0-8-3.582-8-8c-0.057-48.577-39.423-87.943-88-88c-4.418,0-8-3.582-8-8s3.582-8,8-8
		c38.704,0.03,74.198,21.528,92.152,55.816C123.737,181.885,240.008,84.174,376,84c4.418,0,8,3.582,8,8s-3.582,8-8,8
		c-145.734,0.168-263.832,118.266-264,264C112,368.418,108.418,372,104,372z"/>
</g>
<path style="fill:#ff9d87;" d="M8,364h464v48H8V364z"/>
<g>
	<path style="fill:#54C9F3;" d="M360,252.039l47.999-47.999l47.999,47.999l-47.999,47.999L360,252.039z"/>
	<path style="fill:#8ad8f6;" d="M408,60h64v64h-64V60z"/>
</g>
<g>
	<path style="fill:#EFF2FA;" d="M408,244c-0.51-0.013-1.018-0.067-1.52-0.16c-0.53-0.074-1.044-0.236-1.52-0.48
		c-0.512-0.176-0.999-0.418-1.448-0.72l-1.192-0.96c-0.344-0.38-0.665-0.781-0.96-1.2c-0.303-0.446-0.545-0.93-0.72-1.44
		c-0.244-0.476-0.406-0.99-0.48-1.52c-0.093-0.502-0.146-1.01-0.16-1.52c0.027-2.119,0.856-4.148,2.32-5.68l1.192-0.96
		c0.449-0.302,0.936-0.544,1.448-0.72c0.476-0.244,0.99-0.406,1.52-0.48c0.996-0.24,2.036-0.24,3.032,0
		c0.532,0.075,1.049,0.237,1.528,0.48c0.491,0.161,0.951,0.404,1.36,0.72c0.472,0.32,0.88,0.64,1.28,0.96
		c1.461,1.534,2.289,3.562,2.32,5.68c-0.012,0.511-0.069,1.019-0.168,1.52c-0.068,0.53-0.228,1.044-0.472,1.52
		c-0.178,0.508-0.42,0.992-0.72,1.44l-0.96,1.2c-0.4,0.32-0.8,0.64-1.28,0.96c-0.409,0.316-0.869,0.559-1.36,0.72
		c-0.479,0.243-0.996,0.405-1.528,0.48C409.013,243.933,408.508,243.987,408,244L408,244z"/>
	<path style="fill:#EFF2FA;" d="M408,276c-0.51-0.013-1.018-0.067-1.52-0.16c-0.53-0.074-1.044-0.236-1.52-0.48
		c-0.512-0.176-0.999-0.418-1.448-0.72l-1.192-0.96c-3.094-3.155-3.094-8.205,0-11.36l1.192-0.96
		c0.449-0.302,0.936-0.544,1.448-0.72c0.476-0.244,0.99-0.406,1.52-0.48c0.996-0.24,2.036-0.24,3.032,0
		c0.532,0.075,1.049,0.237,1.528,0.48c0.491,0.161,0.951,0.404,1.36,0.72c0.472,0.32,0.88,0.64,1.28,0.96
		c3.094,3.155,3.094,8.205,0,11.36c-0.4,0.32-0.8,0.64-1.28,0.96c-0.409,0.316-0.869,0.559-1.36,0.72
		c-0.479,0.243-0.996,0.405-1.528,0.48C409.013,275.933,408.507,275.987,408,276L408,276z"/>
	<path style="fill:#EFF2FA;" d="M440,100c-2.118-0.029-4.147-0.858-5.68-2.32c-0.344-0.38-0.665-0.781-0.96-1.2
		c-0.303-0.446-0.545-0.93-0.72-1.44c-0.231-0.453-0.393-0.939-0.48-1.44c-0.093-0.529-0.146-1.063-0.16-1.6
		c0.013-1.045,0.23-2.078,0.64-3.04c0.387-0.979,0.957-1.875,1.68-2.64c3.111-3.137,8.177-3.158,11.314-0.047
		c1.526,1.514,2.379,3.577,2.366,5.727c-0.012,0.537-0.069,1.072-0.168,1.6c-0.08,0.502-0.239,0.988-0.472,1.44
		c-0.178,0.508-0.42,0.992-0.72,1.44l-0.96,1.2C444.155,99.154,442.121,99.984,440,100L440,100z"/>
</g>
<g>
</g>
<g>
</g>
<g>
</g>
<g>
</g>
<g>
</g>
<g>
</g>
<g>
</g>
<g>
</g>
<g>
</g>
<g>
</g>
<g>
</g>
<g>
</g>
<g>
</g>
<g>
</g>
<g>
</g>
</svg>
